<svg width="170" height="41" viewBox="0 0 170 41" fill="none" xmlns="http://www.w3.org/2000/svg">
<path d="M7.29861 5.85691V14.1917H21.8958V20.0487H7.29861V31.5372H0V0H23.8331V5.85691H7.29861Z" fill="black"/>
<path d="M36.0425 31.8976C33.4895 31.8976 31.1918 31.372 29.1494 30.3208C27.137 29.2395 25.5602 27.7527 24.4188 25.8605C23.2775 23.9683 22.7068 21.8207 22.7068 19.4179C22.7068 17.0151 23.2775 14.8675 24.4188 12.9753C25.5602 11.0831 27.137 9.61134 29.1494 8.5601C31.1918 7.47882 33.4895 6.93819 36.0425 6.93819C38.5955 6.93819 40.8782 7.47882 42.8906 8.5601C44.903 9.61134 46.4798 11.0831 47.6212 12.9753C48.7625 14.8675 49.3332 17.0151 49.3332 19.4179C49.3332 21.8207 48.7625 23.9683 47.6212 25.8605C46.4798 27.7527 44.903 29.2395 42.8906 30.3208C40.8782 31.372 38.5955 31.8976 36.0425 31.8976ZM36.0425 26.1308C37.8447 26.1308 39.3164 25.5301 40.4577 24.3287C41.6291 23.0973 42.2148 21.4603 42.2148 19.4179C42.2148 17.3755 41.6291 15.7536 40.4577 14.5522C39.3164 13.3207 37.8447 12.705 36.0425 12.705C34.2404 12.705 32.7536 13.3207 31.5823 14.5522C30.4109 15.7536 29.8252 17.3755 29.8252 19.4179C29.8252 21.4603 30.4109 23.0973 31.5823 24.3287C32.7536 25.5301 34.2404 26.1308 36.0425 26.1308Z" fill="black"/>
<path d="M57.5903 10.4974C58.4312 9.326 59.5576 8.43996 60.9692 7.83925C62.4109 7.23854 64.0629 6.93819 65.9251 6.93819V13.4258C65.1442 13.3658 64.6185 13.3357 64.3482 13.3357C62.3358 13.3357 60.759 13.9064 59.6176 15.0478C58.4763 16.1591 57.9056 17.8411 57.9056 20.0937V31.5372H50.8773V7.29861H57.5903V10.4974Z" fill="black"/>
<path d="M91.7328 25.6803V31.5372H67.314V0H91.1471V5.85691H74.5675V12.705H89.2098V18.3817H74.5675V25.6803H91.7328Z" fill="#0042A6"/>
<path d="M108.991 31.5372L103.675 24.1034L98.1782 31.5372H90.5192L99.8452 19.3278L90.8345 7.29861H98.7188L103.855 14.372L109.126 7.29861H116.605L107.594 19.1476L116.965 31.5372H108.991Z" fill="#0042A6"/>
<path d="M131.55 6.93819C133.803 6.93819 135.845 7.46381 137.677 8.51505C139.54 9.53625 140.996 10.993 142.048 12.8852C143.099 14.7474 143.625 16.925 143.625 19.4179C143.625 21.9109 143.099 24.1034 142.048 25.9957C140.996 27.8579 139.54 29.3146 137.677 30.3658C135.845 31.387 133.803 31.8976 131.55 31.8976C128.457 31.8976 126.024 30.9215 124.252 28.9692V40.2775H117.223V7.29861H123.936V10.0919C125.678 7.98943 128.216 6.93819 131.55 6.93819ZM130.334 26.1308C132.136 26.1308 133.608 25.5301 134.749 24.3287C135.92 23.0973 136.506 21.4603 136.506 19.4179C136.506 17.3755 135.92 15.7536 134.749 14.5522C133.608 13.3207 132.136 12.705 130.334 12.705C128.532 12.705 127.045 13.3207 125.874 14.5522C124.732 15.7536 124.162 17.3755 124.162 19.4179C124.162 21.4603 124.732 23.0973 125.874 24.3287C127.045 25.5301 128.532 26.1308 130.334 26.1308Z" fill="#0042A6"/>
<path d="M156.709 31.8976C154.156 31.8976 151.859 31.372 149.816 30.3208C147.804 29.2395 146.227 27.7527 145.086 25.8605C143.944 23.9683 143.374 21.8207 143.374 19.4179C143.374 17.0151 143.944 14.8675 145.086 12.9753C146.227 11.0831 147.804 9.61134 149.816 8.5601C151.859 7.47882 154.156 6.93819 156.709 6.93819C159.262 6.93819 161.545 7.47882 163.557 8.5601C165.57 9.61134 167.147 11.0831 168.288 12.9753C169.429 14.8675 170 17.0151 170 19.4179C170 21.8207 169.429 23.9683 168.288 25.8605C167.147 27.7527 165.57 29.2395 163.557 30.3208C161.545 31.372 159.262 31.8976 156.709 31.8976ZM156.709 26.1308C158.511 26.1308 159.983 25.5301 161.124 24.3287C162.296 23.0973 162.882 21.4603 162.882 19.4179C162.882 17.3755 162.296 15.7536 161.124 14.5522C159.983 13.3207 158.511 12.705 156.709 12.705C154.907 12.705 153.42 13.3207 152.249 14.5522C151.078 15.7536 150.492 17.3755 150.492 19.4179C150.492 21.4603 151.078 23.0973 152.249 24.3287C153.42 25.5301 154.907 26.1308 156.709 26.1308Z" fill="#0042A6"/>
</svg>
